<svg width="21" height="20" viewBox="0 0 21 20" fill="none" xmlns="http://www.w3.org/2000/svg">
<path d="M3.43934 3.93934C3.72064 3.65804 4.10218 3.5 4.5 3.5H16.5C16.8978 3.5 17.2794 3.65804 17.5607 3.93934C17.842 4.22064 18 4.60218 18 5C18 5.39782 17.842 5.77936 17.5607 6.06066C17.2794 6.34196 16.8978 6.5 16.5 6.5H4.5C4.10218 6.5 3.72064 6.34196 3.43934 6.06066C3.15804 5.77936 3 5.39782 3 5C3 4.60218 3.15804 4.22064 3.43934 3.93934Z" fill="white" stroke="white"/>
<path fill-rule="evenodd" clip-rule="evenodd" d="M3.5 8H17.5V15C17.5 15.5304 17.2893 16.0391 16.9142 16.4142C16.5391 16.7893 16.0304 17 15.5 17H5.5C4.96957 17 4.46086 16.7893 4.08579 16.4142C3.71071 16.0391 3.5 15.5304 3.5 15V8ZM8.5 11C8.5 10.7348 8.60536 10.4804 8.79289 10.2929C8.98043 10.1054 9.23478 10 9.5 10H11.5C11.7652 10 12.0196 10.1054 12.2071 10.2929C12.3946 10.4804 12.5 10.7348 12.5 11C12.5 11.2652 12.3946 11.5196 12.2071 11.7071C12.0196 11.8946 11.7652 12 11.5 12H9.5C9.23478 12 8.98043 11.8946 8.79289 11.7071C8.60536 11.5196 8.5 11.2652 8.5 11Z" fill="white"/>
</svg>
