<svg width="9" height="6" viewBox="0 0 9 6" fill="none" xmlns="http://www.w3.org/2000/svg">
<path fill-rule="evenodd" clip-rule="evenodd" d="M0.834449 1.23447C0.984471 1.08449 1.18792 1.00024 1.40005 1.00024C1.61218 1.00024 1.81563 1.08449 1.96565 1.23447L4.60005 3.86887L7.23445 1.23447C7.30825 1.15806 7.39652 1.09711 7.49412 1.05518C7.59173 1.01326 7.6967 0.991188 7.80293 0.990265C7.90915 0.989342 8.01449 1.00958 8.11281 1.04981C8.21113 1.09003 8.30045 1.14943 8.37556 1.22455C8.45068 1.29966 8.51008 1.38898 8.55031 1.4873C8.59053 1.58562 8.61077 1.69096 8.60985 1.79719C8.60893 1.90341 8.58686 2.00839 8.54493 2.10599C8.503 2.20359 8.44206 2.29187 8.36565 2.36566L5.16565 5.56566C5.01563 5.71564 4.81218 5.79989 4.60005 5.79989C4.38792 5.79989 4.18447 5.71564 4.03445 5.56566L0.834449 2.36566C0.684472 2.21564 0.60022 2.0122 0.60022 1.80006C0.60022 1.58793 0.684472 1.38449 0.834449 1.23447V1.23447Z" fill="#9C9C9C"/>
</svg>
