<svg width="22" height="22" viewBox="0 0 22 22" fill="currentColor" xmlns="http://www.w3.org/2000/svg">
<path fillRule="evenodd" clipRule="evenodd" d="M6.60019 2.19995C6.30846 2.19995 6.02867 2.31584 5.82238 2.52213C5.61609 2.72842 5.5002 3.00821 5.5002 3.29995V4.39995H4.4002C3.81672 4.39995 3.25714 4.63174 2.84456 5.04432C2.43198 5.4569 2.2002 6.01647 2.2002 6.59995V17.5999C2.2002 18.1834 2.43198 18.743 2.84456 19.1556C3.25714 19.5682 3.81672 19.7999 4.4002 19.7999H17.6002C18.1837 19.7999 18.7432 19.5682 19.1558 19.1556C19.5684 18.743 19.8002 18.1834 19.8002 17.5999V6.59995C19.8002 6.01647 19.5684 5.4569 19.1558 5.04432C18.7432 4.63174 18.1837 4.39995 17.6002 4.39995H16.5002V3.29995C16.5002 3.00821 16.3843 2.72842 16.178 2.52213C15.9717 2.31584 15.6919 2.19995 15.4002 2.19995C15.1085 2.19995 14.8287 2.31584 14.6224 2.52213C14.4161 2.72842 14.3002 3.00821 14.3002 3.29995V4.39995H7.70019V3.29995C7.70019 3.00821 7.5843 2.72842 7.37801 2.52213C7.17172 2.31584 6.89193 2.19995 6.60019 2.19995ZM6.60019 7.69995C6.30846 7.69995 6.02867 7.81584 5.82238 8.02213C5.61609 8.22842 5.5002 8.50821 5.5002 8.79995C5.5002 9.09169 5.61609 9.37148 5.82238 9.57777C6.02867 9.78406 6.30846 9.89995 6.60019 9.89995H15.4002C15.6919 9.89995 15.9717 9.78406 16.178 9.57777C16.3843 9.37148 16.5002 9.09169 16.5002 8.79995C16.5002 8.50821 16.3843 8.22842 16.178 8.02213C15.9717 7.81584 15.6919 7.69995 15.4002 7.69995H6.60019Z" />
</svg>
