<svg width="14" height="11" viewBox="0 0 14 11" fill="currentColor" xmlns="http://www.w3.org/2000/svg">
<path fill-rule="evenodd" clip-rule="evenodd" d="M13.707 1.28684C13.8945 1.47436 13.9998 1.72867 13.9998 1.99384C13.9998 2.259 13.8945 2.51331 13.707 2.70084L5.70698 10.7008C5.51945 10.8883 5.26514 10.9936 4.99998 10.9936C4.73482 10.9936 4.48051 10.8883 4.29298 10.7008L0.29298 6.70084C0.110822 6.51223 0.0100274 6.25963 0.0123059 5.99743C0.0145843 5.73524 0.119753 5.48443 0.305161 5.29902C0.490569 5.11361 0.741382 5.00844 1.00358 5.00616C1.26578 5.00388 1.51838 5.10468 1.70698 5.28684L4.99998 8.57984L12.293 1.28684C12.4805 1.09936 12.7348 0.994049 13 0.994049C13.2651 0.994049 13.5195 1.09936 13.707 1.28684Z" />
</svg>
