<svg width="17" height="16" viewBox="0 0 17 16" fill="currentColor" xmlns="http://www.w3.org/2000/svg">
<path fillRule="evenodd" clipRule="evenodd" d="M8.5001 14.4C10.1975 14.4 11.8253 13.7257 13.0256 12.5255C14.2258 11.3252 14.9001 9.69736 14.9001 7.99998C14.9001 6.30259 14.2258 4.67472 13.0256 3.47449C11.8253 2.27426 10.1975 1.59998 8.5001 1.59998C6.80271 1.59998 5.17485 2.27426 3.97461 3.47449C2.77438 4.67472 2.1001 6.30259 2.1001 7.99998C2.1001 9.69736 2.77438 11.3252 3.97461 12.5255C5.17485 13.7257 6.80271 14.4 8.5001 14.4V14.4ZM9.3001 4.79998C9.3001 4.5878 9.21581 4.38432 9.06578 4.23429C8.91575 4.08426 8.71227 3.99998 8.5001 3.99998C8.28792 3.99998 8.08444 4.08426 7.93441 4.23429C7.78438 4.38432 7.7001 4.5878 7.7001 4.79998V7.99998C7.70014 8.21213 7.78446 8.41558 7.9345 8.56557L10.1969 10.8288C10.2712 10.9031 10.3595 10.9621 10.4566 11.0023C10.5537 11.0425 10.6578 11.0632 10.7629 11.0632C10.868 11.0632 10.9721 11.0425 11.0692 11.0023C11.1663 10.9621 11.2546 10.9031 11.3289 10.8288C11.4032 10.7544 11.4622 10.6662 11.5024 10.5691C11.5426 10.472 11.5633 10.3679 11.5633 10.2628C11.5633 10.1577 11.5426 10.0536 11.5024 9.95646C11.4622 9.85934 11.4032 9.7711 11.3289 9.69678L9.3001 7.66878V4.79998Z" />
</svg>
