<svg width="12" height="12" viewBox="0 0 12 12" fill="currentColor" xmlns="http://www.w3.org/2000/svg">
<path fill-rule="evenodd" clip-rule="evenodd" d="M0.863697 0.857523C1.03247 0.688799 1.26135 0.594015 1.5 0.594015C1.73864 0.594015 1.96752 0.688799 2.1363 0.857523L6 4.72122L9.8637 0.857523C9.94672 0.771564 10.046 0.703 10.1558 0.655832C10.2656 0.608664 10.3837 0.583836 10.5032 0.582798C10.6227 0.581759 10.7412 0.604531 10.8519 0.649783C10.9625 0.695036 11.0629 0.761864 11.1475 0.846367C11.232 0.930871 11.2988 1.03136 11.344 1.14196C11.3893 1.25257 11.4121 1.37108 11.411 1.49058C11.41 1.61009 11.3852 1.72818 11.338 1.83799C11.2908 1.94779 11.2223 2.0471 11.1363 2.13012L7.2726 5.99382L11.1363 9.85752C11.3002 10.0273 11.391 10.2546 11.3889 10.4906C11.3869 10.7266 11.2922 10.9523 11.1253 11.1192C10.9585 11.286 10.7327 11.3807 10.4968 11.3827C10.2608 11.3848 10.0334 11.2941 9.8637 11.1301L6 7.26642L2.1363 11.1301C1.96655 11.2941 1.73921 11.3848 1.50324 11.3827C1.26726 11.3807 1.04153 11.286 0.87466 11.1192C0.707793 10.9523 0.613141 10.7266 0.61109 10.4906C0.60904 10.2546 0.699755 10.0273 0.863697 9.85752L4.7274 5.99382L0.863697 2.13012C0.694973 1.96135 0.600189 1.73247 0.600189 1.49382C0.600189 1.25518 0.694973 1.0263 0.863697 0.857523Z" />
</svg>
