<svg width="14" height="14" viewBox="0 0 14 14" fill="none" xmlns="http://www.w3.org/2000/svg">
<path d="M10.748 3.25186L10.7484 3.25227C11.7822 4.28791 12.3001 5.64289 12.3001 6.99992C12.3001 7.34471 12.1631 7.67536 11.9193 7.91916C11.6755 8.16296 11.3449 8.29992 11.0001 8.29992C10.6553 8.29992 10.3247 8.16296 10.0809 7.91916C9.8371 7.67539 9.70014 7.34478 9.70011 7.00005L10.748 3.25186ZM10.748 3.25186C10.0404 2.54469 9.14707 2.05222 8.17135 1.83139C7.19564 1.61056 6.17735 1.67038 5.2342 2.00395C4.29106 2.33752 3.46158 2.9312 2.84166 3.71637C2.22174 4.50153 1.8367 5.44612 1.73105 6.44091C1.6254 7.43571 1.80345 8.4401 2.24462 9.33796C2.6858 10.2358 3.37208 10.9905 4.22412 11.5147C5.07616 12.0389 6.05917 12.3113 7.05951 12.3003C8.05984 12.2894 9.03664 11.9955 9.87699 11.4527L9.87709 11.4529M10.748 3.25186L9.87709 11.4529M9.87709 11.4529L9.88846 11.4451M9.87709 11.4529L9.88846 11.4451M9.88846 11.4451C9.92149 11.4224 9.95873 11.4066 9.99798 11.3986C10.0372 11.3906 10.0777 11.3905 10.117 11.3984C10.1562 11.4062 10.1935 11.4219 10.2267 11.4444L10.5076 11.0308M9.88846 11.4451L10.5076 11.0308M10.5076 11.0308L10.2267 11.4444C10.2598 11.4669 10.2881 11.4958 10.3099 11.5294C10.3317 11.563 10.3465 11.6007 10.3535 11.6401C10.3605 11.6796 10.3595 11.72 10.3506 11.7591C10.3417 11.7981 10.3251 11.835 10.3018 11.8675C10.2784 11.9001 10.2487 11.9276 10.2146 11.9485L10.2145 11.9484M10.5076 11.0308L10.2145 11.9484M10.2145 11.9484L10.2038 11.9553M10.2145 11.9484L10.2038 11.9553M10.2038 11.9553C9.10251 12.6674 7.79532 12.9923 6.48877 12.8786C5.18222 12.765 3.95078 12.2192 2.98899 11.3276C2.02721 10.436 1.38992 9.24934 1.17779 7.95512C0.965668 6.6609 1.19081 5.3329 1.81764 4.1809C2.44447 3.02891 3.43726 2.11861 4.63917 1.5938C5.84108 1.069 7.18358 0.959614 8.45459 1.28293C9.72561 1.60624 10.8527 2.34382 11.6577 3.37914C12.4628 4.41446 12.8999 5.68851 12.9001 6.99999V7.00009M10.2038 11.9553L12.9001 7.00009M12.9001 7.00009C12.9002 7.353 12.8021 7.69896 12.6166 7.99921C12.4311 8.29946 12.1657 8.54212 11.8501 8.69999C11.5345 8.85787 11.1811 8.92472 10.8296 8.89306C10.4781 8.8614 10.1424 8.73247 9.86011 8.52072L9.46011 8.22072M12.9001 7.00009L9.46011 8.22072M9.46011 8.22072L9.16011 8.62072M9.46011 8.22072L9.16011 8.62072M9.16011 8.62072C8.77545 9.13359 8.22086 9.49286 7.59556 9.63424M9.16011 8.62072L7.59556 9.63424M7.59556 9.63424C6.97026 9.77563 6.31505 9.6899 5.74717 9.39241M7.59556 9.63424L5.74717 9.39241M5.74717 9.39241C5.17929 9.09491 4.73579 8.60505 4.49603 8.01049M5.74717 9.39241L4.49603 8.01049M4.49603 8.01049C4.25628 7.41592 4.2359 6.75544 4.43856 6.14723M4.49603 8.01049L4.43856 6.14723M4.43856 6.14723C4.64121 5.53901 5.05367 5.02275 5.60213 4.69082M4.43856 6.14723L5.60213 4.69082M5.60213 4.69082C6.15059 4.35888 6.79927 4.23293 7.4321 4.33551M5.60213 4.69082L7.4321 4.33551M7.4321 4.33551C8.06493 4.43808 8.64061 4.76248 9.05614 5.25066M7.4321 4.33551L9.05614 5.25066M9.05614 5.25066C9.47165 5.73882 9.69992 6.35888 9.70011 6.99992L9.05614 5.25066ZM9.10011 6.99992C9.10011 6.44297 8.87886 5.90883 8.48503 5.515C8.0912 5.12117 7.55706 4.89992 7.00011 4.89992C6.44315 4.89992 5.90901 5.12117 5.51518 5.515C5.12136 5.90882 4.90011 6.44297 4.90011 6.99992C4.90011 7.55688 5.12136 8.09102 5.51518 8.48485C5.90901 8.87867 6.44315 9.09992 7.00011 9.09992C7.55706 9.09992 8.0912 8.87867 8.48503 8.48485C8.87886 8.09102 9.10011 7.55688 9.10011 6.99992Z" fill="#9C9C9C" stroke="#9C9C9C"/>
</svg>
