<svg width="32" height="33" viewBox="0 0 32 33" fill="none" xmlns="http://www.w3.org/2000/svg">
<path d="M14.4044 32.4342C11.9395 32.1982 9.44394 31.3135 7.30013 29.9156C5.50369 28.7442 5.09801 28.2626 5.09801 27.3016C5.09801 25.3712 7.22166 21.9902 10.8551 18.1358C12.9187 15.9468 15.793 13.381 16.1039 13.4505C16.7081 13.5855 21.5394 18.2955 23.348 20.5127C26.2081 24.0189 27.5229 26.8896 26.8549 28.1695C26.3472 29.1424 23.1964 31.0439 20.8817 31.7745C18.9739 32.3766 16.4684 32.6318 14.4044 32.4342ZM2.67171 25.2945C1.1789 23.0056 0.424688 20.7522 0.0605484 17.493C-0.0596913 16.4169 -0.0166036 15.8013 0.333581 13.5924C0.770037 10.8393 2.33874 7.6543 4.22368 5.6942C5.02649 4.85938 5.09819 4.83904 6.07676 5.16852C7.26512 5.56863 8.53419 6.44461 10.5023 8.22331L11.6507 9.2611L11.0236 10.031C8.11273 13.6051 5.03988 18.6712 3.88182 21.8055C3.25225 23.5095 2.99832 25.2199 3.2692 25.932C3.45209 26.4127 3.2841 26.2335 2.67171 25.2945ZM28.8751 25.6838C29.0225 24.9643 28.836 23.6429 28.3989 22.3101C27.4521 19.4237 24.2877 14.0541 21.3819 10.4032L20.4672 9.25395L21.4568 8.34575C22.749 7.15991 23.6461 6.44984 24.6141 5.84684C25.378 5.371 26.4696 4.94977 26.9388 4.94977C27.2281 4.94977 28.2465 6.00609 29.0687 7.15889C30.342 8.94433 31.2788 11.1087 31.7534 13.3618C32.06 14.8176 32.0856 17.9338 31.8028 19.386C31.5707 20.5778 31.0806 22.1237 30.6026 23.1722C30.2444 23.9578 29.3535 25.4835 28.963 25.9799C28.7623 26.2352 28.7622 26.2346 28.8751 25.6838ZM14.6684 4.40472C13.3276 3.72425 11.2593 2.9938 10.1167 2.79729C9.7162 2.72839 9.03292 2.68997 8.59835 2.7119C7.65566 2.75948 7.69777 2.71021 9.21003 1.99613C10.4673 1.40246 11.516 1.05335 12.9397 0.754582C14.5412 0.41849 17.5515 0.414546 19.1276 0.746474C20.8298 1.10498 22.8343 1.8505 23.9638 2.5452L24.2994 2.75167L23.5292 2.7128C21.9987 2.63555 19.7682 3.25355 17.3734 4.41834C16.6511 4.76967 16.0226 5.05027 15.9769 5.04189C15.9312 5.03352 15.3423 4.74679 14.6684 4.40472Z" fill="white"/>
</svg>
