<svg width="22" height="22" viewBox="0 0 22 22" fill="currentColor" xmlns="http://www.w3.org/2000/svg">
<path d="M11.7776 2.52226C11.5713 2.31604 11.2915 2.2002 10.9999 2.2002C10.7082 2.2002 10.4284 2.31604 10.2222 2.52226L2.52216 10.2223C2.32179 10.4297 2.21091 10.7076 2.21342 10.996C2.21593 11.2844 2.33161 11.5603 2.53556 11.7643C2.73951 11.9682 3.0154 12.0839 3.30382 12.0864C3.59224 12.0889 3.8701 11.978 4.07756 11.7777L4.39986 11.4554V18.7C4.39986 18.9917 4.51575 19.2715 4.72204 19.4778C4.92833 19.6841 5.20812 19.8 5.49986 19.8H7.69986C7.9916 19.8 8.27139 19.6841 8.47768 19.4778C8.68397 19.2715 8.79986 18.9917 8.79986 18.7V16.5C8.79986 16.2082 8.91575 15.9284 9.12205 15.7221C9.32833 15.5159 9.60812 15.4 9.89986 15.4H12.0999C12.3916 15.4 12.6714 15.5159 12.8777 15.7221C13.084 15.9284 13.1999 16.2082 13.1999 16.5V18.7C13.1999 18.9917 13.3158 19.2715 13.522 19.4778C13.7283 19.6841 14.0081 19.8 14.2999 19.8H16.4999C16.7916 19.8 17.0714 19.6841 17.2777 19.4778C17.484 19.2715 17.5999 18.9917 17.5999 18.7V11.4554L17.9222 11.7777C18.1296 11.978 18.4075 12.0889 18.6959 12.0864C18.9843 12.0839 19.2602 11.9682 19.4642 11.7643C19.6681 11.5603 19.7838 11.2844 19.7863 10.996C19.7888 10.7076 19.6779 10.4297 19.4776 10.2223L11.7776 2.52226Z" />
</svg>
