<svg width="12" height="12" viewBox="0 0 12 12" fill="currentColor" stroke="currentColor" xmlns="http://www.w3.org/2000/svg">
<path d="M2.9998 5.89995H3.4998V5.39995V4.19995C3.4998 3.53691 3.7632 2.90103 4.23204 2.43218C4.70088 1.96334 5.33676 1.69995 5.9998 1.69995C6.66285 1.69995 7.29873 1.96334 7.76757 2.43218C8.23641 2.90103 8.4998 3.53691 8.4998 4.19995V5.39995V5.89995H8.9998C9.18546 5.89995 9.3635 5.9737 9.49478 6.10498C9.62605 6.23625 9.6998 6.4143 9.6998 6.59995V9.59995C9.6998 9.7856 9.62605 9.96365 9.49478 10.0949C9.3635 10.2262 9.18546 10.3 8.9998 10.3H2.9998C2.81415 10.3 2.63611 10.2262 2.50483 10.0949C2.37355 9.96365 2.2998 9.7856 2.2998 9.59995V6.59995C2.2998 6.4143 2.37355 6.23625 2.50483 6.10498C2.63611 5.9737 2.81415 5.89995 2.9998 5.89995ZM7.7998 5.89995H8.2998V5.39995V4.19995C8.2998 3.58995 8.05748 3.00494 7.62615 2.57361C7.19482 2.14227 6.6098 1.89995 5.9998 1.89995C5.38981 1.89995 4.80479 2.14227 4.37346 2.57361C3.94213 3.00494 3.6998 3.58995 3.6998 4.19995V5.39995V5.89995H4.1998H7.7998Z"  />
</svg>
