<svg width="14" height="13" viewBox="0 0 14 13" fill="none" xmlns="http://www.w3.org/2000/svg">
<path fillRule="evenodd" clipRule="evenodd" d="M0 1.5C0 1.23478 0.105357 0.98043 0.292893 0.792893C0.48043 0.605357 0.734784 0.5 1 0.5H13C13.2652 0.5 13.5196 0.605357 13.7071 0.792893C13.8946 0.98043 14 1.23478 14 1.5C14 1.76522 13.8946 2.01957 13.7071 2.20711C13.5196 2.39464 13.2652 2.5 13 2.5H1C0.734784 2.5 0.48043 2.39464 0.292893 2.20711C0.105357 2.01957 0 1.76522 0 1.5ZM0 6.5C0 6.23478 0.105357 5.98043 0.292893 5.79289C0.48043 5.60536 0.734784 5.5 1 5.5H13C13.2652 5.5 13.5196 5.60536 13.7071 5.79289C13.8946 5.98043 14 6.23478 14 6.5C14 6.76522 13.8946 7.01957 13.7071 7.20711C13.5196 7.39464 13.2652 7.5 13 7.5H1C0.734784 7.5 0.48043 7.39464 0.292893 7.20711C0.105357 7.01957 0 6.76522 0 6.5ZM6 11.5C6 11.2348 6.10536 10.9804 6.29289 10.7929C6.48043 10.6054 6.73478 10.5 7 10.5H13C13.2652 10.5 13.5196 10.6054 13.7071 10.7929C13.8946 10.9804 14 11.2348 14 11.5C14 11.7652 13.8946 12.0196 13.7071 12.2071C13.5196 12.3946 13.2652 12.5 13 12.5H7C6.73478 12.5 6.48043 12.3946 6.29289 12.2071C6.10536 12.0196 6 11.7652 6 11.5Z" fill="white"/>
</svg>
