<svg width="12" height="13" viewBox="0 0 12 13" fill="currentColor" xmlns="http://www.w3.org/2000/svg">
<path d="M12 8.80683C10.8374 9.33267 9.54225 9.49179 8.28698 9.26296C7.03172 9.03414 5.87597 8.42825 4.97374 7.52602C4.0715 6.62378 3.46562 5.46804 3.23679 4.21277C3.00797 2.95751 3.16709 1.66231 3.69293 0.499756C2.7674 0.918022 1.95715 1.55458 1.33171 2.35481C0.706258 3.15504 0.284279 4.09506 0.101973 5.09422C-0.0803334 6.09338 -0.0175252 7.12185 0.285009 8.0914C0.587544 9.06095 1.12077 9.94263 1.83895 10.6608C2.55713 11.379 3.43881 11.9122 4.40836 12.2147C5.37791 12.5173 6.40638 12.5801 7.40554 12.3978C8.4047 12.2155 9.34472 11.7935 10.1449 11.1681C10.9452 10.5426 11.5817 9.73236 12 8.80683V8.80683Z" />
</svg>
