<svg width="16" height="16" viewBox="0 0 16 16" fill="none" xmlns="http://www.w3.org/2000/svg">
<path d="M13.5777 2.4223C13.3714 2.21615 13.0917 2.10034 12.8001 2.10034C12.5084 2.10034 12.2287 2.21617 12.0225 2.42235C12.0224 2.42237 12.0224 2.42239 12.0224 2.42241L6.1001 8.34471V9.9H7.65539L13.5777 3.9777C13.5777 3.97768 13.5777 3.97766 13.5777 3.97765C13.7839 3.77137 13.8998 3.49166 13.8998 3.2C13.8998 2.90837 13.7839 2.62868 13.5778 2.42241C13.5778 2.42237 13.5777 2.42234 13.5777 2.4223ZM13.5777 2.4223L13.9313 2.0688L13.5777 2.4223Z" fill="#9C9C9C" stroke="#9C9C9C"/>
<path fill-rule="evenodd" clip-rule="evenodd" d="M1.6001 4.79995C1.6001 4.3756 1.76867 3.96864 2.06873 3.66858C2.36878 3.36852 2.77575 3.19995 3.2001 3.19995H6.4001C6.61227 3.19995 6.81575 3.28424 6.96578 3.43427C7.11581 3.5843 7.2001 3.78778 7.2001 3.99995C7.2001 4.21212 7.11581 4.41561 6.96578 4.56564C6.81575 4.71567 6.61227 4.79995 6.4001 4.79995H3.2001V12.8H11.2001V9.59995C11.2001 9.38778 11.2844 9.1843 11.4344 9.03427C11.5844 8.88424 11.7879 8.79995 12.0001 8.79995C12.2123 8.79995 12.4158 8.88424 12.5658 9.03427C12.7158 9.1843 12.8001 9.38778 12.8001 9.59995V12.8C12.8001 13.2243 12.6315 13.6313 12.3315 13.9313C12.0314 14.2314 11.6244 14.4 11.2001 14.4H3.2001C2.77575 14.4 2.36878 14.2314 2.06873 13.9313C1.76867 13.6313 1.6001 13.2243 1.6001 12.8V4.79995Z" fill="#9C9C9C"/>
</svg>
