<svg width="17" height="16" viewBox="0 0 17 16" fill="none" xmlns="http://www.w3.org/2000/svg">
<path d="M4.46412 2.54501L4.46407 2.54498C3.53972 1.98175 2.48201 3.03943 3.04519 3.96378L4.46412 2.54501ZM4.46412 2.54501C4.73733 2.71143 5.04596 2.811 5.36491 2.83561C5.68386 2.86022 6.00412 2.80917 6.29962 2.68663C6.59511 2.56409 6.8575 2.37351 7.06543 2.13041C7.27336 1.8873 7.42096 1.59854 7.49621 1.28761L7.01024 1.17M4.46412 2.54501L9.50328 14.7113M1.78933 6.99685L1.78921 6.99688C0.736909 7.25237 0.738353 8.74865 1.78891 9.00305L1.78896 9.00306C2.09997 9.0784 2.38878 9.22613 2.63189 9.43422C2.87499 9.64231 3.06551 9.90488 3.18794 10.2005C3.31036 10.4962 3.36123 10.8166 3.3364 11.1356C3.31158 11.4545 3.21181 11.7631 3.04522 12.0362C2.48204 12.9604 3.53948 14.018 4.46377 13.4552L1.78933 6.99685ZM1.78933 6.99685C3.12614 6.67194 3.76148 5.1391 3.04522 3.96383L1.78933 6.99685ZM9.50328 14.7113L9.5034 14.7108C9.57899 14.4 9.72684 14.1115 9.93494 13.8686C10.143 13.6257 10.4055 13.4353 10.701 13.3129C10.9966 13.1906 11.3168 13.1397 11.6357 13.1643C11.9546 13.189 12.2632 13.2886 12.5363 13.455L12.5364 13.455C13.4608 14.0183 14.5185 12.9605 13.9553 12.0362L13.9552 12.0361C13.7888 11.7629 13.6893 11.4543 13.6646 11.1354C13.6399 10.8165 13.6908 10.4963 13.8132 10.2008C13.9355 9.90528 14.1259 9.6428 14.3688 9.4347C14.6117 9.2266 14.9003 9.07875 15.2111 9.00316L15.2113 9.00312C16.2636 8.74763 16.2621 7.25135 15.2116 6.99695L15.2115 6.99694C14.9005 6.9216 14.6117 6.77387 14.3686 6.56578C14.1255 6.35769 13.935 6.09513 13.8125 5.79947C13.6901 5.50381 13.6392 5.18342 13.6641 4.86438C13.6889 4.54535 13.7887 4.23669 13.9554 3.96353C14.5183 3.03924 13.4607 1.9818 12.5364 2.54498C12.2633 2.71157 11.9548 2.81134 11.6359 2.83616C11.3168 2.86099 10.9964 2.81013 10.7008 2.6877C10.4051 2.56528 10.1426 2.37475 9.93446 2.13165C9.72637 1.88854 9.57864 1.59973 9.5033 1.28873L9.49099 1.23792C9.2001 0.237499 7.74791 0.254304 7.49603 1.28833L7.01024 1.17M9.50328 14.7113C9.24889 15.7619 7.75261 15.7633 7.49712 14.711C7.42176 14.4001 7.27405 14.1114 7.06602 13.8684C6.85793 13.6252 6.59536 13.4347 6.29971 13.3123C6.00405 13.1899 5.68366 13.139 5.36462 13.1638C5.04564 13.1887 4.73704 13.2885 4.46392 13.4551L9.50328 14.7113ZM7.01024 1.17C7.39024 -0.39 9.61024 -0.39 9.99024 1.17M7.01024 1.17C6.95351 1.40442 6.84223 1.62213 6.68546 1.80541C6.52869 1.9887 6.33087 2.13238 6.10808 2.22477C5.8853 2.31716 5.64384 2.35564 5.40338 2.33709C5.16291 2.31854 4.93022 2.24347 4.72424 2.118L9.99024 1.17M9.99024 1.17L9.98924 1.171L9.99024 1.17ZM8.50024 11.5C9.4285 11.5 10.3187 11.1313 10.9751 10.4749C11.6315 9.8185 12.0002 8.92826 12.0002 8C12.0002 7.07174 11.6315 6.1815 10.9751 5.52513C10.3187 4.86875 9.4285 4.5 8.50024 4.5C7.57198 4.5 6.68174 4.86875 6.02536 5.52513C5.36899 6.1815 5.00024 7.07174 5.00024 8C5.00024 8.92826 5.36899 9.8185 6.02536 10.4749C6.68174 11.1313 7.57198 11.5 8.50024 11.5Z" fill="white" stroke="white"/>
</svg>
