<svg width="14" height="14" viewBox="0 0 14 14" fill="none" xmlns="http://www.w3.org/2000/svg">
<path d="M8.90411 7.89105L8.65921 8.23549L8.95806 8.53433L12.8079 12.3841C12.8611 12.4405 12.8904 12.5152 12.8898 12.5928C12.8891 12.6714 12.8575 12.7467 12.8019 12.8023L13.1555 13.1558L12.8019 12.8023C12.7463 12.8579 12.671 12.8895 12.5924 12.8901C12.5148 12.8908 12.4401 12.8614 12.3838 12.8082L8.53476 8.95922L8.23591 8.66037L7.89146 8.90529C7.24815 9.36273 6.49134 9.63426 5.70396 9.69013C4.91658 9.746 4.12901 9.58405 3.42756 9.22204C2.7261 8.86002 2.13783 8.31191 1.72721 7.63776L1.30019 7.89786L1.72721 7.63776C1.31659 6.96361 1.09946 6.18944 1.09961 5.40008L1.09961 5.39991C1.09952 4.72317 1.25917 4.05596 1.56557 3.45255C1.87196 2.84913 2.31645 2.32656 2.86289 1.92732C3.40933 1.52809 4.04229 1.26347 4.71028 1.15498C5.37827 1.04649 6.06244 1.0972 6.70714 1.30298C7.35184 1.50877 7.93887 1.86381 8.42048 2.33924C8.90209 2.81468 9.26468 3.39707 9.47877 4.03906C9.69286 4.68105 9.7524 5.36451 9.65254 6.03384C9.55269 6.70318 9.29626 7.3395 8.90411 7.89105ZM5.39961 1.69998C4.41831 1.69998 3.4772 2.0898 2.78331 2.78368C2.08943 3.47757 1.69961 4.41868 1.69961 5.39998C1.69961 6.38128 2.08943 7.32239 2.78331 8.01627C3.4772 8.71016 4.41831 9.09998 5.39961 9.09998C6.38091 9.09998 7.32202 8.71016 8.0159 8.01627C8.70979 7.32239 9.09961 6.38128 9.09961 5.39998C9.09961 4.41868 8.70979 3.47757 8.0159 2.78368C7.32202 2.0898 6.38091 1.69998 5.39961 1.69998Z" fill="#4DAE4F" stroke="#4DAE4F"/>
</svg>
