<svg width="16" height="17" viewBox="0 0 16 17" fill="currentColor" xmlns="http://www.w3.org/2000/svg">
<path fillRule="evenodd" clipRule="evenodd" d="M8 0.5C8.26522 0.5 8.51957 0.605357 8.70711 0.792893C8.89464 0.98043 9 1.23478 9 1.5V2.5C9 2.76522 8.89464 3.01957 8.70711 3.20711C8.51957 3.39464 8.26522 3.5 8 3.5C7.73478 3.5 7.48043 3.39464 7.29289 3.20711C7.10536 3.01957 7 2.76522 7 2.5V1.5C7 1.23478 7.10536 0.98043 7.29289 0.792893C7.48043 0.605357 7.73478 0.5 8 0.5V0.5ZM12 8.5C12 9.56087 11.5786 10.5783 10.8284 11.3284C10.0783 12.0786 9.06087 12.5 8 12.5C6.93913 12.5 5.92172 12.0786 5.17157 11.3284C4.42143 10.5783 4 9.56087 4 8.5C4 7.43913 4.42143 6.42172 5.17157 5.67157C5.92172 4.92143 6.93913 4.5 8 4.5C9.06087 4.5 10.0783 4.92143 10.8284 5.67157C11.5786 6.42172 12 7.43913 12 8.5V8.5ZM11.536 13.45L12.243 14.157C12.4316 14.3392 12.6842 14.44 12.9464 14.4377C13.2086 14.4354 13.4594 14.3302 13.6448 14.1448C13.8302 13.9594 13.9354 13.7086 13.9377 13.4464C13.94 13.1842 13.8392 12.9316 13.657 12.743L12.95 12.036C12.7614 11.8538 12.5088 11.753 12.2466 11.7553C11.9844 11.7576 11.7336 11.8628 11.5482 12.0482C11.3628 12.2336 11.2576 12.4844 11.2553 12.7466C11.253 13.0088 11.3538 13.2614 11.536 13.45V13.45ZM13.656 2.843C13.8435 3.03053 13.9488 3.28484 13.9488 3.55C13.9488 3.81516 13.8435 4.06947 13.656 4.257L12.95 4.964C12.8578 5.05951 12.7474 5.13569 12.6254 5.1881C12.5034 5.24051 12.3722 5.2681 12.2394 5.26925C12.1066 5.2704 11.9749 5.2451 11.852 5.19482C11.7291 5.14454 11.6175 5.07029 11.5236 4.9764C11.4297 4.8825 11.3555 4.77085 11.3052 4.64795C11.2549 4.52506 11.2296 4.39338 11.2307 4.2606C11.2319 4.12782 11.2595 3.9966 11.3119 3.8746C11.3643 3.75259 11.4405 3.64225 11.536 3.55L12.243 2.843C12.4305 2.65553 12.6848 2.55021 12.95 2.55021C13.2152 2.55021 13.4695 2.65553 13.657 2.843H13.656ZM15 9.5C15.2652 9.5 15.5196 9.39464 15.7071 9.20711C15.8946 9.01957 16 8.76522 16 8.5C16 8.23478 15.8946 7.98043 15.7071 7.79289C15.5196 7.60536 15.2652 7.5 15 7.5H14C13.7348 7.5 13.4804 7.60536 13.2929 7.79289C13.1054 7.98043 13 8.23478 13 8.5C13 8.76522 13.1054 9.01957 13.2929 9.20711C13.4804 9.39464 13.7348 9.5 14 9.5H15ZM8 13.5C8.26522 13.5 8.51957 13.6054 8.70711 13.7929C8.89464 13.9804 9 14.2348 9 14.5V15.5C9 15.7652 8.89464 16.0196 8.70711 16.2071C8.51957 16.3946 8.26522 16.5 8 16.5C7.73478 16.5 7.48043 16.3946 7.29289 16.2071C7.10536 16.0196 7 15.7652 7 15.5V14.5C7 14.2348 7.10536 13.9804 7.29289 13.7929C7.48043 13.6054 7.73478 13.5 8 13.5V13.5ZM3.05 4.964C3.14284 5.05691 3.25308 5.13062 3.37441 5.18093C3.49574 5.23124 3.6258 5.25716 3.75715 5.2572C3.88849 5.25725 4.01857 5.23142 4.13993 5.1812C4.2613 5.13098 4.37159 5.05734 4.4645 4.9645C4.55741 4.87166 4.63112 4.76142 4.68143 4.64009C4.73174 4.51876 4.75766 4.3887 4.7577 4.25735C4.75775 4.12601 4.73192 3.99593 4.6817 3.87457C4.63148 3.7532 4.55784 3.64291 4.465 3.55L3.757 2.843C3.5684 2.66084 3.3158 2.56005 3.0536 2.56233C2.7914 2.5646 2.54059 2.66977 2.35518 2.85518C2.16977 3.04059 2.0646 3.2914 2.06233 3.5536C2.06005 3.8158 2.16084 4.0684 2.343 4.257L3.05 4.964V4.964ZM4.464 13.45L3.757 14.157C3.5684 14.3392 3.3158 14.44 3.0536 14.4377C2.7914 14.4354 2.54059 14.3302 2.35518 14.1448C2.16977 13.9594 2.0646 13.7086 2.06233 13.4464C2.06005 13.1842 2.16084 12.9316 2.343 12.743L3.05 12.036C3.2386 11.8538 3.4912 11.753 3.7534 11.7553C4.0156 11.7576 4.26641 11.8628 4.45182 12.0482C4.63723 12.2336 4.7424 12.4844 4.74467 12.7466C4.74695 13.0088 4.64616 13.2614 4.464 13.45V13.45ZM2 9.5C2.26522 9.5 2.51957 9.39464 2.70711 9.20711C2.89464 9.01957 3 8.76522 3 8.5C3 8.23478 2.89464 7.98043 2.70711 7.79289C2.51957 7.60536 2.26522 7.5 2 7.5H1C0.734784 7.5 0.48043 7.60536 0.292893 7.79289C0.105357 7.98043 0 8.23478 0 8.5C0 8.76522 0.105357 9.01957 0.292893 9.20711C0.48043 9.39464 0.734784 9.5 1 9.5H2Z" />
</svg>
