<svg width="20" height="17" viewBox="0 0 20 17" fill="currentColor" xmlns="http://www.w3.org/2000/svg">
<path d="M13.3 3.60005C13.3 4.47526 12.9523 5.31463 12.3335 5.9335C11.7146 6.55237 10.8752 6.90005 10 6.90005C9.12479 6.90005 8.28542 6.55237 7.66655 5.9335C7.04768 5.31463 6.70001 4.47526 6.70001 3.60005C6.70001 2.72483 7.04768 1.88547 7.66655 1.2666C8.28542 0.647727 9.12479 0.300049 10 0.300049C10.8752 0.300049 11.7146 0.647727 12.3335 1.2666C12.9523 1.88547 13.3 2.72483 13.3 3.60005ZM18.8 5.80005C18.8 6.38353 18.5682 6.9431 18.1556 7.35568C17.7431 7.76826 17.1835 8.00005 16.6 8.00005C16.0165 8.00005 15.457 7.76826 15.0444 7.35568C14.6318 6.9431 14.4 6.38353 14.4 5.80005C14.4 5.21657 14.6318 4.65699 15.0444 4.24441C15.457 3.83183 16.0165 3.60005 16.6 3.60005C17.1835 3.60005 17.7431 3.83183 18.1556 4.24441C18.5682 4.65699 18.8 5.21657 18.8 5.80005ZM14.4 13.5C14.4 12.3331 13.9364 11.2139 13.1113 10.3888C12.2861 9.56362 11.167 9.10005 10 9.10005C8.83305 9.10005 7.7139 9.56362 6.88874 10.3888C6.06358 11.2139 5.60001 12.3331 5.60001 13.5V16.8H14.4V13.5ZM5.60001 5.80005C5.60001 6.38353 5.36822 6.9431 4.95564 7.35568C4.54306 7.76826 3.98348 8.00005 3.40001 8.00005C2.81653 8.00005 2.25695 7.76826 1.84437 7.35568C1.43179 6.9431 1.20001 6.38353 1.20001 5.80005C1.20001 5.21657 1.43179 4.65699 1.84437 4.24441C2.25695 3.83183 2.81653 3.60005 3.40001 3.60005C3.98348 3.60005 4.54306 3.83183 4.95564 4.24441C5.36822 4.65699 5.60001 5.21657 5.60001 5.80005ZM16.6 16.8V13.5C16.6016 12.3817 16.3176 11.2814 15.775 10.3034C16.2627 10.1786 16.7724 10.1669 17.2654 10.269C17.7583 10.3712 18.2214 10.5846 18.6193 10.893C19.0172 11.2013 19.3394 11.5965 19.5613 12.0483C19.7833 12.5001 19.8991 12.9967 19.9 13.5V16.8H16.6ZM4.22501 10.3034C3.68243 11.2814 3.39846 12.3817 3.40001 13.5V16.8H0.100006V13.5C0.0997944 12.9963 0.214916 12.4992 0.436548 12.0468C0.65818 11.5944 0.980439 11.1988 1.37863 10.8902C1.77682 10.5816 2.24037 10.3683 2.73375 10.2666C3.22713 10.1649 3.73725 10.1775 4.22501 10.3034Z"/>
</svg>
