<svg width="12" height="13" viewBox="0 0 12 13" fill="none" xmlns="http://www.w3.org/2000/svg">
<path d="M7.34341 4.14341C6.98709 4.49972 6.50381 4.6999 5.9999 4.6999C5.49599 4.6999 5.01272 4.49972 4.6564 4.14341C4.30008 3.78709 4.0999 3.30381 4.0999 2.7999C4.0999 2.29599 4.30008 1.81272 4.6564 1.4564C5.01272 1.10008 5.49599 0.899902 5.9999 0.899902C6.50381 0.899902 6.98709 1.10008 7.34341 1.4564C7.69973 1.81272 7.8999 2.29599 7.8999 2.7999C7.8999 3.30381 7.69973 3.78709 7.34341 4.14341ZM0.924471 11.8999C0.973555 11.4017 1.09583 10.9124 1.28812 10.4482C1.54442 9.82946 1.92008 9.26724 2.39366 8.79366C2.86724 8.32008 3.42946 7.94442 4.04822 7.68812C4.66698 7.43182 5.33016 7.2999 5.9999 7.2999C6.66964 7.2999 7.33283 7.43182 7.95159 7.68812C8.57035 7.94442 9.13257 8.32008 9.60615 8.79366C10.0797 9.26724 10.4554 9.82946 10.7117 10.4482C10.904 10.9124 11.0263 11.4017 11.0753 11.8999H0.924471Z" fill="#9C9C9C" stroke="#9C9C9C"/>
</svg>
